PathFileType	4	(X/Y/Z)	C:\Users\Basilio\Documents\Thesis Gigler\squatting_fais\c3dfiles\073\SLS_front_pre5\markers_experimental.trc
DataRate	CameraRate	NumFrames	NumMarkers	Units	OrigDataRate	OrigDataStartFrame	OrigNumFrames
200.000000	200.000000	4	61	mm	200.000000	959	1279
Frame#	Time	FHD			LBHD			RBHD			C7			T10			CLAV			LSHO			LUUPA			LMUPA			LDUPA			LLEP			LMEP			LRAD			LUL			LRFIN			RSHO			RUPA1			RMUPA			RDUPA			RLEP			RMEP			RUL			RUFIN			LASI			RASI			USACR			LSACR			RSACR			LTHI1			LTHI2			LTHI3			LTHI4			LLFC			LMFC			LTIB1			LTIB2			LTIB3			LTIB4			LLMAL			LMMAL			LHEE			LMT1			LMT2			LMT5			RTHI			RTHI2			RTHI3			RTHI4			RLFC			RMFC			RTIB1			RTIB2			RTIB3			RTIB4			RLMAL			RMMAL			RHEE			RMT1			RMT2			RMT5			RRAD			
		X1	Y1	Z1	X2	Y2	Z2	X3	Y3	Z3	X4	Y4	Z4	X5	Y5	Z5	X6	Y6	Z6	X7	Y7	Z7	X8	Y8	Z8	X9	Y9	Z9	X10	Y10	Z10	X11	Y11	Z11	X12	Y12	Z12	X13	Y13	Z13	X14	Y14	Z14	X15	Y15	Z15	X16	Y16	Z16	X17	Y17	Z17	X18	Y18	Z18	X19	Y19	Z19	X20	Y20	Z20	X21	Y21	Z21	X22	Y22	Z22	X23	Y23	Z23	X24	Y24	Z24	X25	Y25	Z25	X26	Y26	Z26	X27	Y27	Z27	X28	Y28	Z28	X29	Y29	Z29	X30	Y30	Z30	X31	Y31	Z31	X32	Y32	Z32	X33	Y33	Z33	X34	Y34	Z34	X35	Y35	Z35	X36	Y36	Z36	X37	Y37	Z37	X38	Y38	Z38	X39	Y39	Z39	X40	Y40	Z40	X41	Y41	Z41	X42	Y42	Z42	X43	Y43	Z43	X44	Y44	Z44	X45	Y45	Z45	X46	Y46	Z46	X47	Y47	Z47	X48	Y48	Z48	X49	Y49	Z49	X50	Y50	Z50	X51	Y51	Z51	X52	Y52	Z52	X53	Y53	Z53	X54	Y54	Z54	X55	Y55	Z55	X56	Y56	Z56	X57	Y57	Z57	X58	Y58	Z58	X59	Y59	Z59	X60	Y60	Z60	X61	Y61	Z61	

960	4.795	-166.4043731689453	1700.464599609375	-781.2993164062502	-306.7056884765626	1678.877197265625	-797.3206176757815	-323.2667846679688	1664.5419921875	-662.3989257812501	-361.7210083007813	1555.471557617188	-724.2815551757814	-419.4924621582032	1221.959594726563	-719.6254272460939	-236.2066497802735	1471.606079101563	-732.9250488281251	-271.5089416503907	1511.231323242188	-881.1513671875002	-200.8695220947266	1420.184692382813	-975.7114868164065	-156.2958068847657	1436.853759765625	-958.1195068359377	-141.9742736816407	1386.340454101563	-989.2927246093752	-42.05507278442384	1350.448364257813	-999.617370605469	-49.48805618286134	1295.916748046875	-953.6319580078127	221.6485290527344	1350.557373046875	-895.654235839844	223.1713104248047	1347.524047851563	-970.0667114257815	304.1818542480469	1354.581909179688	-890.8167724609377	-245.1023254394532	1498.279907226563	-579.8309936523439	-163.6873626708985	1373.505126953125	-490.8650512695314	-121.3939895629883	1390.172729492188	-505.925994873047	-105.9250259399414	1335.6298828125	-487.3751220703126	-18.75447654724121	1304.18359375	-489.5083007812501	-32.34496307373048	1254.469848632813	-555.1044311523439	242.8404998779297	1312.182983398438	-542.0330810546876	320.7912597656251	1317.403686523438	-625.0028686523439	-281.2972412109376	1079.06103515625	-880.9689941406252	-242.5145416259766	1032.167602539063	-635.3306884765626	-440.6543273925782	1120.222900390625	-721.2888793945314	-459.7791442871095	1096.544067382813	-751.6566162109376	-452.6951599121095	1085.753784179688	-696.7578735351564	-209.7112426757813	788.1594238281252	-939.6655883789065	-151.4373931884766	730.7237548828126	-918.206726074219	-118.8833923339844	747.5824584960939	-885.062194824219	-157.4178314208985	671.9349975585939	-916.4188232421877	-141.7882080078125	615.2254028320314	-919.017761230469	-156.6258544921875	603.2097778320314	-782.8582763671877	-84.7785110473633	420.9932861328126	-872.3742675781252	-135.9620971679688	380.5150146484376	-932.2087402343752	-97.748161315918	374.9357604980469	-907.580017089844	-96.69360351562503	294.9595947265626	-877.6986083984377	-153.8491516113282	177.114013671875	-914.0942382812502	-150.2278442382813	196.2169189453126	-828.4384765625002	-214.7965545654297	142.12548828125	-877.0190429687502	4.452646255493165	134.4905090332032	-822.3917236328127	9.323539733886721	138.092025756836	-860.3364257812502	-22.16834831237793	117.7613906860352	-917.7942504882815	-354.9621276855469	801.2017211914065	-582.2376708984376	-324.6520996093751	742.1942749023439	-583.6134033203126	-291.0025024414063	741.0548095703126	-587.3148803710939	-359.0338745117188	669.5880737304689	-611.0691528320314	-351.6411437988282	519.1826782226564	-637.4309692382814	-345.0735778808594	517.1657104492189	-768.6896972656252	-303.4010314941407	366.0320739746094	-736.1618652343751	-327.6100769042969	278.4089965820313	-677.0620117187501	-301.1051940917969	280.8466491699219	-717.6453857421876	-316.0235595703126	238.3811798095704	-754.7518310546876	-364.8678894042969	102.111801147461	-717.3933715820314	-356.6784667968751	131.6236419677735	-799.9025878906252	-432.9015197753907	85.08937072753908	-775.1047363281252	-208.4922332763672	55.10717773437501	-789.370300292969	-208.5248565673829	50.36124420166017	-749.2023315429689	-251.9119415283204	33.54714965820313	-700.2517700195314	232.9579162597657	1305.440795898438	-619.1212158203126	
961	4.8	-165.9458160400391	1700.295532226563	-780.986999511719	-306.3299865722657	1679.046142578125	-796.9238891601565	-322.8082885742188	1664.6484375	-661.8414306640626	-361.5113830566407	1555.510375976563	-723.9137573242189	-419.3104553222657	1221.938354492188	-719.7036743164064	-236.0875701904297	1471.595092773438	-732.6723022460939	-271.3415222167969	1511.388916015625	-880.8536376953127	-200.7803955078126	1420.3603515625	-975.4693603515627	-156.2866668701172	1437.059448242188	-957.9403076171877	-141.8750152587891	1386.503662109375	-989.1917724609377	-42.05404663085938	1350.67626953125	-999.6920166015627	-49.43598937988283	1295.986694335938	-953.706237792969	221.7222137451172	1350.455932617188	-895.7258911132815	223.3355255126954	1347.513305664063	-970.2829589843752	304.2461547851563	1354.43115234375	-890.951354980469	-244.8991394042969	1498.179565429688	-579.5179443359376	-163.55859375	1373.2177734375	-490.8101196289064	-121.2101211547852	1389.956176757813	-506.0233459472657	-105.7036437988282	1335.371459960938	-487.2047729492189	-18.55117416381836	1303.975830078125	-489.3921203613282	-32.19178771972657	1254.299682617188	-555.0505371093751	242.9815673828126	1312.223266601563	-542.0765380859376	320.9135742187501	1317.5537109375	-625.0935668945314	-281.0196228027344	1078.848999023438	-880.9927978515627	-242.4459228515626	1032.177856445313	-635.2195434570314	-440.5420532226564	1120.316528320313	-721.4787597656251	-459.5994873046876	1096.598388671875	-751.8546142578126	-452.5519104003907	1085.808715820313	-697.0411376953126	-210.0818328857422	787.705505371094	-939.6400146484377	-151.8508911132813	729.9815673828126	-918.2391357421877	-119.2581863403321	746.8117065429689	-885.0420532226565	-158.1086730957032	671.2953491210939	-916.4270019531252	-142.7439575195313	614.5145263671876	-919.100036621094	-157.7836608886719	602.5154418945314	-782.9194946289065	-86.83702087402345	419.991912841797	-872.339050292969	-138.190902709961	379.7614440917969	-932.1126098632815	-100.1379165649414	373.9926757812501	-907.5323486328127	-99.5435485839844	294.0177612304688	-877.9114990234377	-157.6384582519532	176.5195922851563	-914.171813964844	-153.731185913086	195.6124725341797	-828.6876220703127	-218.571029663086	141.9166564941407	-877.2730712890627	0.6499019265174867	132.9669647216797	-822.5044555664065	5.608345031738282	136.5168762207032	-860.341003417969	-25.94245147705079	116.4588928222657	-918.095153808594	-355.0733947753907	801.3340454101565	-582.2006225585939	-325.0104370117188	742.2315063476564	-583.1251220703126	-291.1111145019532	741.1669921875001	-587.0401611328126	-359.1476745605469	669.7005615234376	-610.9956054687501	-351.7630004882813	519.2951660156251	-637.3833007812501	-344.8491516113282	517.2058105468751	-768.6092529296877	-303.2272644042969	366.1171875000001	-735.8398437500001	-327.7515869140626	278.5236816406251	-676.8063964843751	-301.2162475585938	280.9109802246094	-717.4462280273439	-316.0474243164063	238.4069366455079	-754.5083007812501	-364.9275817871094	102.0982742309571	-717.2429199218751	-356.6403198242188	131.7545623779297	-799.781921386719	-432.913299560547	85.14784240722658	-775.0510253906252	-208.4845733642579	55.13229370117189	-789.3300781250002	-208.5220336914063	50.34904098510744	-749.2318115234376	-251.896713256836	33.50999832153321	-700.2520141601564	232.8175964355469	1305.1015625	-618.7435913085939	
962	4.805	-165.4568023681641	1700.025268554688	-780.6165161132815	-306.0700378417969	1679.127563476563	-796.5081787109377	-322.6607055664063	1664.922119140625	-661.6645507812501	-361.3331298828126	1555.550170898438	-723.5595703125001	-419.1398925781251	1221.965087890625	-719.8538208007814	-235.9537963867188	1471.578979492188	-732.4041748046876	-271.1473999023438	1511.545043945313	-880.5572509765627	-200.6933135986329	1420.563598632813	-975.3111572265627	-156.1005401611328	1437.28955078125	-957.7734375000002	-141.8881225585938	1386.703491210938	-989.0945434570315	-42.0802116394043	1350.859619140625	-999.6594238281252	-49.40993118286134	1296.088989257813	-953.7207031250002	221.7884521484376	1350.32763671875	-895.8298339843752	223.5256042480469	1347.424560546875	-970.3555297851565	304.3538513183594	1354.201538085938	-891.0644531250002	-244.725082397461	1498.040893554688	-579.2373657226564	-163.3571319580078	1373.017944335938	-490.617156982422	-121.063835144043	1389.744384765625	-505.8228454589845	-105.5579071044922	1335.13330078125	-486.9925537109376	-18.39329338073731	1303.751708984375	-489.2944946289064	-31.98694610595704	1254.139892578125	-554.9595336914064	243.114242553711	1312.194458007813	-542.1916503906251	320.9168701171876	1317.86328125	-625.0768432617189	-280.8056030273438	1078.664794921875	-881.0154418945315	-242.4099273681641	1032.183349609375	-635.1683349609376	-440.4234619140626	1120.371826171875	-721.6651611328126	-459.3854064941407	1096.656372070313	-752.0642089843751	-452.3977355957032	1085.873291015625	-697.2439575195314	-210.4105834960938	787.3292236328127	-939.6357421875002	-152.3907012939453	729.2362060546876	-918.2030029296877	-119.6268615722657	746.0281372070314	-885.0496826171877	-158.7821502685547	670.6783447265626	-916.5203857421877	-143.5702514648438	613.7698364257814	-919.1541748046877	-158.8428039550782	601.9116821289064	-782.9920654296877	-88.86894989013673	419.0408630371095	-872.4414672851565	-140.587646484375	378.9415283203126	-931.9171142578127	-102.3709259033203	373.1415100097657	-907.6167602539065	-102.4357528686524	293.0513916015626	-878.0443115234377	-161.0157775878907	175.9818878173828	-914.3972167968752	-157.1800384521485	194.9645538330079	-828.9671630859377	-222.2274322509766	141.6824340820313	-877.5401611328127	-3.143257379531861	131.4669647216797	-822.7456054687502	1.706112265586853	134.9373779296875	-860.6621093750002	-29.7889747619629	115.0020294189453	-918.0984497070315	-355.2173461914063	801.4377441406252	-582.2205200195314	-325.2168273925782	742.3260498046876	-583.0632324218751	-291.2563781738282	741.2647705078126	-586.8304443359376	-359.2660827636719	669.8001708984376	-610.9910888671876	-351.8937072753907	519.3818969726564	-637.2730102539064	-344.6670227050782	517.2888793945314	-768.538024902344	-303.2162780761719	366.1425781250001	-735.5925903320314	-328.0873718261719	278.5445861816407	-676.7727661132814	-301.2935791015626	280.9516296386719	-717.2189331054689	-315.9798889160157	238.4929809570313	-754.3058471679689	-364.9343872070313	102.056869506836	-717.1201782226564	-356.5242309570313	131.8447570800782	-799.5681152343752	-432.9185791015626	85.13985443115236	-775.016296386719	-208.4937133789063	55.16173171997072	-789.2592773437502	-208.529281616211	50.29811477661134	-749.2752685546876	-251.894760131836	33.48194122314454	-700.1633300781251	232.4838409423829	1304.50634765625	-618.0490722656251	
963	4.81	-167.4191284179688	1699.594482421875	-780.0838623046877	-305.4906005859376	1679.307006835938	-796.0276489257815	-322.0665588378907	1664.779052734375	-661.0602416992189	-361.1393432617188	1555.609008789063	-723.2178344726564	-418.9688720703126	1221.964477539063	-719.9533691406251	-235.7724151611329	1471.575317382813	-732.1170654296876	-271.0015869140626	1511.646240234375	-880.2863769531252	-200.5735931396485	1420.734497070313	-975.115417480469	-155.9905700683594	1437.453491210938	-957.582702636719	-141.8263244628907	1386.916259765625	-988.9949340820315	-42.07932281494141	1351.073852539063	-999.7005004882815	-49.3507766723633	1296.187133789063	-953.7012939453127	221.9332580566407	1350.25634765625	-895.9204711914065	223.5711669921876	1347.405151367188	-970.4652099609377	304.4729309082032	1354.029418945313	-891.225769042969	-244.5733642578126	1497.866088867188	-579.0503540039064	-163.2186889648438	1372.791381835938	-490.4541015625001	-120.9155044555664	1389.5517578125	-505.6354064941407	-105.3485412597657	1334.895629882813	-486.8665161132814	-18.18426704406739	1303.536865234375	-489.1912536621095	-31.84029769897462	1253.995239257813	-554.9124145507814	243.240951538086	1312.19921875	-542.1920776367189	321.0234680175782	1318.041381835938	-625.2039184570314	-280.4725646972657	1078.5517578125	-881.013366699219	-242.3419799804688	1032.217407226563	-635.1327514648439	-440.2050170898439	1120.418212890625	-721.8485107421876	-459.1699829101564	1096.744995117188	-752.2944335937501	-452.231170654297	1085.9931640625	-697.4925537109376	-210.6574096679688	786.921813964844	-939.5805664062502	-152.9878692626953	728.6377563476564	-918.1617431640627	-120.1019287109375	745.2281494140626	-884.9734497070315	-159.5845184326172	670.0141601562501	-916.5445556640627	-144.3387756347657	613.0709838867189	-919.2362060546877	-159.9918823242188	601.2773437500001	-783.1115722656252	-90.87282562255861	418.124237060547	-872.3987426757815	-142.2695007324219	378.9053039550782	-932.0264282226565	-104.6078414916992	372.1930541992188	-907.7432861328127	-105.1620864868164	292.1726989746094	-878.0437622070315	-164.1641235351563	175.4179229736328	-914.6358642578127	-160.4416656494141	194.4292602539063	-828.9934082031252	-225.7929992675782	141.4697875976563	-877.7991333007815	-6.865684509277346	129.8890228271485	-822.9973144531252	-1.959847807884217	133.4507446289063	-860.7418212890627	-33.42778778076173	113.7821502685547	-918.356384277344	-355.3910827636719	801.5591430664065	-582.2249755859376	-325.3819274902344	742.4197998046876	-583.0223999023439	-291.4513854980469	741.3460083007814	-586.6918334960939	-359.4098510742188	669.9282836914064	-610.9486083984376	-352.0681457519532	519.5107421875001	-637.2457275390626	-344.5350341796876	517.3285522460939	-768.4072265625002	-303.2351074218751	366.2334899902344	-735.3125610351564	-328.2967834472657	278.5555725097657	-676.5776367187501	-301.4249877929688	280.9887390136719	-717.0438842773439	-316.0820312500001	238.5299072265626	-754.1104125976564	-364.9435424804688	102.0151443481446	-716.9773559570314	-356.4890136718751	131.9459991455078	-799.415954589844	-432.922088623047	85.19176483154298	-774.9861450195315	-208.4803466796876	55.180965423584	-789.2431640625002	-208.497543334961	50.28636550903322	-749.1839599609376	-251.9212036132813	33.44629669189454	-700.1492309570314	232.0438842773438	1303.757934570313	-617.1651000976564	
